#!OML:ASF X:\für Bonn\!DataBase\2005_08_11_Bastian_Final\c3d\Bastian.ASF
:FULLY-SPECIFIED
:DEGREES
355
root 18.2045 17.4189 -3.16399 541.312 -108.003 -187.275
lowerback 23.6779 1.70801 -0.32475
upperback 15.4501 0.931087 -0.704415
thorax 3.88839 -0.0175958 -0.791976
lowerneck -8.74522 -9.17888 -0.292801
upperneck -15.667 -11.5797 15.816
head -2.22485 -6.60605 4.71492
rclavicle 1.15295e-014 9.54166e-015
rhumerus -9.52096 34.5104 -82.0678
rradius 28.7299
rwrist -8.42141
rhand -32.7709 7.87466
rfingers 7.12502
rthumb -5.99306 -22.0206
lclavicle 1.15295e-014 9.54166e-015
lhumerus -3.63338 -15.9201 83.4223
lradius 26.5308
lwrist 26.0565
lhand -14.9018 -8.0442
lfingers 7.12502
lthumb 11.2595 21.6336
rfemur -27.4973 -2.81392 23.5842
rtibia 58.7122
rfoot -19.0656 -4.18661
rtoes -2.3141
lfemur 6.5935 4.53021 -18.6297
ltibia 20.9911
lfoot -13.5232 -9.83949
ltoes -7.01007
356
root 18.1215 17.4216 -3.13427 541.383 -107.757 -187.473
lowerback 23.3279 1.58757 -0.306537
upperback 15.3376 0.800952 -0.691117
thorax 3.92399 -0.0762707 -0.758787
lowerneck -8.60897 -9.09529 -0.54527
upperneck -15.5616 -11.4463 15.8927
head -2.20159 -6.5243 4.78199
rclavicle 2.14687e-014 -9.14409e-015
rhumerus -10.2505 33.8122 -82.4983
rradius 28.4247
rwrist -8.35712
rhand -32.8506 7.9306
rfingers 7.12502
rthumb -6.06993 -21.9625
lclavicle 2.14687e-014 -9.14409e-015
lhumerus -3.58311 -15.63 83.4612
lradius 26.7699
lwrist 25.8815
lhand -14.9117 -8.29755
lfingers 7.12502
lthumb 11.2499 21.3808
rfemur -27.8938 -3.0479 23.6441
rtibia 57.9471
rfoot -19.2134 -3.98205
rtoes -1.23314
lfemur 7.55177 4.65621 -18.5706
ltibia 20.0521
lfoot -13.4205 -9.67438
ltoes -7.20586
357
root 18.0365 17.4247 -3.10553 541.668 -107.52 -187.876
lowerback 22.9539 1.45676 -0.232322
upperback 15.2371 0.666243 -0.663689
thorax 3.98694 -0.134016 -0.742018
lowerneck -8.5408 -9.00449 -0.75391
upperneck -15.4174 -11.3168 15.9108
head -2.16359 -6.4406 4.82012
rclavicle -3.18055e-015 5.96354e-015
rhumerus -10.9218 33.0389 -82.9136
rradius 28.0688
rwrist -8.20115
rhand -32.9092 8.012
rfingers 7.12502
rthumb -6.12655 -21.8794
lclavicle -3.18055e-015 5.96354e-015
lhumerus -3.50632 -15.5184 83.4495
lradius 27.0235
lwrist 25.8494
lhand -14.9545 -8.57842
lfingers 7.12502
lthumb 11.2086 21.1022
rfemur -28.2733 -3.31111 23.7782
rtibia 57.0962
rfoot -19.3172 -3.77359
rtoes -0.101881
lfemur 8.51511 4.80774 -18.4295
ltibia 19.0749
lfoot -13.3442 -9.55142
ltoes -7.82576
358
root 17.9513 17.4264 -3.07723 541.982 -107.29 -188.312
lowerback 22.6255 1.33913 -0.13119
upperback 15.1217 0.552415 -0.630378
thorax 4.01238 -0.179163 -0.739131
lowerneck -8.52743 -8.94162 -0.858591
upperneck -15.1983 -11.2463 15.8145
head -2.10577 -6.38098 4.80063
rclavicle 2.42517e-014 -5.28767e-014
rhumerus -11.6473 32.1087 -83.3009
rradius 27.7324
rwrist -7.85205
rhand -32.8517 8.09377
rfingers 7.12502
rthumb -6.07109 -21.7992
lclavicle 2.42517e-014 -5.28767e-014
lhumerus -3.47502 -15.482 83.4613
lradius 27.289
lwrist 25.7523
lhand -14.9667 -8.82419
lfingers 7.12502
lthumb 11.1968 20.857
rfemur -28.6162 -3.6508 23.9481
rtibia 56.1978
rfoot -19.3577 -3.65795
rtoes 0.394577
lfemur 9.49965 4.95934 -18.2758
ltibia 18.0576
lfoot -13.2207 -9.40815
ltoes -8.13148
359
root 17.8649 17.4264 -3.04953 542.267 -107.074 -188.728
lowerback 22.2957 1.21526 -0.0197222
upperback 15.0376 0.427904 -0.612289
thorax 4.07549 -0.229392 -0.757651
lowerneck -8.53817 -8.87758 -0.951274
upperneck -15.0239 -11.1731 15.7282
head -2.0579 -6.32404 4.78348
rclavicle 2.0276e-014 -3.1408e-014
rhumerus -12.2674 31.0594 -83.6436
rradius 27.3314
rwrist -7.38572
rhand -32.7996 8.23904
rfingers 7.12502
rthumb -6.02079 -21.6554
lclavicle 2.0276e-014 -3.1408e-014
lhumerus -3.39073 -15.5139 83.4246
lradius 27.5535
lwrist 25.6835
lhand -14.9347 -9.02548
lfingers 7.12502
lthumb 11.2277 20.6541
rfemur -28.894 -4.0109 24.1158
rtibia 55.2489
rfoot -19.3392 -3.54193
rtoes 0.727192
lfemur 10.4973 5.12368 -18.1216
ltibia 17.0324
lfoot -13.0865 -9.30291
ltoes -8.45568
360
root 17.7775 17.4262 -3.02202 542.586 -106.891 -189.122
lowerback 21.9373 1.0759 0.0886891
upperback 14.916 0.287294 -0.581645
thorax 4.1096 -0.286478 -0.758507
lowerneck -8.48783 -8.80838 -1.09129
upperneck -14.8456 -11.0856 15.6508
head -2.01596 -6.25897 4.77949
rclavicle 3.69739e-014 7.15625e-015
rhumerus -12.9613 30.2505 -83.9567
rradius 26.9999
rwrist -7.10577
rhand -32.7645 8.38782
rfingers 7.12502
rthumb -5.98681 -21.5076
lclavicle 3.69739e-014 7.15625e-015
lhumerus -3.35323 -15.4765 83.4387
lradius 27.8052
lwrist 25.5548
lhand -14.6754 -9.18537
lfingers 7.12502
lthumb 11.4778 20.4804
rfemur -29.1986 -4.37457 24.261
rtibia 54.268
rfoot -19.2923 -3.38756
rtoes 1.47418
lfemur 11.4465 5.18199 -17.9991
ltibia 15.9924
lfoot -12.9612 -9.13266
ltoes -8.75884
361
root 17.6877 17.4235 -2.99547 542.886 -106.714 -189.525
lowerback 21.6042 0.945375 0.197919
upperback 14.8058 0.155076 -0.558667
thorax 4.14541 -0.339649 -0.770729
lowerneck -8.38675 -8.73551 -1.14814
upperneck -14.7419 -10.9936 15.5334
head -2.01317 -6.20108 4.75709
rclavicle 3.65764e-014 -1.47101e-014
rhumerus -13.6061 29.3068 -84.2584
rradius 26.5931
rwrist -6.68635
rhand -32.7413 8.61999
rfingers 7.12502
rthumb -5.96443 -21.2761
lclavicle 3.65764e-014 -1.47101e-014
lhumerus -3.3501 -15.6001 83.404
lradius 28.1233
lwrist 25.4757
lhand -14.3951 -9.30655
lfingers 7.12502
lthumb 11.7481 20.344
rfemur -29.4193 -4.68348 24.3883
rtibia 53.2473
rfoot -19.2546 -3.25488
rtoes 2.35886
lfemur 12.4469 5.34956 -17.8337
ltibia 14.9209
lfoot -12.7945 -9.07973
ltoes -9.00809
362
root 17.5964 17.4215 -2.96923 543.156 -106.562 -189.88
lowerback 21.2913 0.813345 0.304214
upperback 14.6634 0.0227513 -0.523044
thorax 4.13508 -0.392513 -0.768168
lowerneck -8.2303 -8.67152 -1.19735
upperneck -14.6542 -10.9127 15.3641
head -2.02737 -6.14937 4.721
rclavicle 9.93923e-015 6.75868e-015
rhumerus -14.3282 28.4583 -84.5293
rradius 26.2752
rwrist -6.44246
rhand -32.6711 8.84727
rfingers 7.12502
rthumb -5.89672 -21.0507
lclavicle 9.93923e-015 6.75868e-015
lhumerus -3.39114 -15.6895 83.4265
lradius 28.4266
lwrist 25.3399
lhand -14.1785 -9.40514
lfingers 7.12502
lthumb 11.957 20.2334
rfemur -29.6448 -4.99209 24.4964
rtibia 52.2006
rfoot -19.1616 -3.27022
rtoes 3.14164
lfemur 13.4465 5.51277 -17.6756
ltibia 13.8179
lfoot -12.5969 -9.03821
ltoes -9.32584
363
root 17.5036 17.419 -2.94326 543.532 -106.424 -190.359
lowerback 20.9883 0.665826 0.423048
upperback 14.534 -0.130712 -0.467897
thorax 4.13516 -0.456964 -0.749245
lowerneck -8.13786 -8.58822 -1.29748
upperneck -14.4943 -10.8081 15.2322
head -2.00563 -6.07855 4.69836
rclavicle -2.26615e-014 -8.34896e-015
rhumerus -15.0017 27.5951 -84.7636
rradius 25.9318
rwrist -6.04398
rhand -32.5195 9.00658
rfingers 7.12502
rthumb -5.75027 -20.8954
lclavicle -2.26615e-014 -8.34896e-015
lhumerus -3.45861 -15.7478 83.4488
lradius 28.7495
lwrist 25.222
lhand -14.0496 -9.57703
lfingers 7.12502
lthumb 12.0813 20.0542
rfemur -29.8238 -5.24744 24.6421
rtibia 51.1333
rfoot -19.0969 -3.53809
rtoes 3.47795
lfemur 14.4792 5.58687 -17.4981
ltibia 12.6908
lfoot -12.4344 -8.92325
ltoes -9.70589
364
root 17.4097 17.4128 -2.91881 543.883 -106.272 -190.785
lowerback 20.662 0.549902 0.532275
upperback 14.4003 -0.244785 -0.412373
thorax 4.1433 -0.501778 -0.73202
lowerneck -7.98459 -8.54122 -1.3747
upperneck -14.4057 -10.7476 15.079
head -2.01441 -6.03612 4.67027
rclavicle -5.80451e-014 1.35174e-014
rhumerus -15.7001 26.8685 -84.9795
rradius 25.6654
rwrist -5.90881
rhand -32.3323 9.09923
rfingers 7.12502
rthumb -5.56954 -20.8076
lclavicle -5.80451e-014 1.35174e-014
lhumerus -3.49615 -15.9552 83.4617
lradius 29.06
lwrist 25.1036
lhand -13.9056 -9.64999
lfingers 7.12502
lthumb 12.2201 19.973
rfemur -30.0017 -5.4597 24.7784
rtibia 50.0634
rfoot -19.0815 -3.95176
rtoes 3.5627
lfemur 15.4997 5.75028 -17.3135
ltibia 11.5407
lfoot -12.2193 -8.88417
ltoes -10.0182
365
root 17.3167 17.4057 -2.89562 544.215 -106.134 -191.194
lowerback 20.383 0.427213 0.643964
upperback 14.2615 -0.368645 -0.361605
thorax 4.12271 -0.551503 -0.720097
lowerneck -7.88261 -8.48483 -1.41799
upperneck -14.242 -10.6853 14.8933
head -1.99714 -5.98743 4.62185
rclavicle -8.74653e-015 -6.75868e-015
rhumerus -16.386 26.1103 -85.1865
rradius 25.4013
rwrist -5.70283
rhand -32.0385 9.23987
rfingers 7.12502
rthumb -5.28594 -20.6742
lclavicle -8.74653e-015 -6.75868e-015
lhumerus -3.55638 -16.2354 83.461
lradius 29.4274
lwrist 25.0403
lhand -13.8489 -9.7116
lfingers 7.12502
lthumb 12.2748 19.9082
rfemur -30.1408 -5.62007 24.9094
rtibia 49.0057
rfoot -19.115 -4.41046
rtoes 3.87601
lfemur 16.5479 5.84898 -17.1474
ltibia 10.3103
lfoot -11.9409 -8.80174
ltoes -10.1183
